<?xml version="1.0" encoding="UTF-8"?>
<svg xmlns="http://www.w3.org/2000/svg" xmlns:xlink="http://www.w3.org/1999/xlink" version="1.1" class="clearos-svg clearfoundation app-vendor-wikisuite app-free app-category-server app-sub-category-web" viewBox="0 0 36 18">
<g id="surface1">
<path style=" stroke:none;fill-rule:nonzero;fill:rgb(0%,0%,0%);fill-opacity:1;" d="M 2.726562 4.003906 L 7.84375 4.003906 C 9.34375 4.015625 10.429688 4.449219 11.105469 5.300781 C 11.777344 6.152344 12 7.316406 11.773438 8.792969 C 11.683594 9.46875 11.484375 10.128906 11.179688 10.777344 C 10.886719 11.425781 10.480469 12.011719 9.960938 12.53125 C 9.324219 13.195312 8.644531 13.613281 7.917969 13.792969 C 7.191406 13.96875 6.441406 14.058594 5.667969 14.058594 L 3.378906 14.058594 L 2.652344 17.683594 L 0 17.683594 L 2.726562 4.003906 M 4.960938 6.179688 L 3.816406 11.902344 C 3.890625 11.914062 3.96875 11.921875 4.046875 11.921875 C 4.132812 11.921875 4.222656 11.921875 4.3125 11.921875 C 5.53125 11.933594 6.550781 11.816406 7.363281 11.558594 C 8.179688 11.292969 8.726562 10.363281 9.003906 8.773438 C 9.234375 7.4375 9.003906 6.667969 8.320312 6.464844 C 7.644531 6.261719 6.800781 6.167969 5.78125 6.179688 C 5.628906 6.191406 5.484375 6.199219 5.34375 6.199219 C 5.214844 6.199219 5.082031 6.199219 4.941406 6.199219 L 4.960938 6.179688 "/>
<path style=" stroke:none;fill-rule:nonzero;fill:rgb(0%,0%,0%);fill-opacity:1;" d="M 14.792969 0.359375 L 17.425781 0.359375 L 16.683594 4.003906 L 19.046875 4.003906 C 20.347656 4.03125 21.3125 4.296875 21.949219 4.804688 C 22.597656 5.3125 22.789062 6.28125 22.519531 7.707031 L 21.242188 14.058594 L 18.570312 14.058594 L 19.792969 7.992188 C 19.917969 7.355469 19.882812 6.90625 19.679688 6.636719 C 19.472656 6.371094 19.035156 6.238281 18.363281 6.238281 L 16.242188 6.21875 L 14.679688 14.058594 L 12.046875 14.058594 L 14.792969 0.359375 "/>
<path style=" stroke:none;fill-rule:nonzero;fill:rgb(0%,0%,0%);fill-opacity:1;" d="M 25.347656 4.003906 L 30.460938 4.003906 C 31.960938 4.015625 33.050781 4.449219 33.722656 5.300781 C 34.398438 6.152344 34.621094 7.316406 34.390625 8.792969 C 34.304688 9.46875 34.105469 10.128906 33.800781 10.777344 C 33.507812 11.425781 33.101562 12.011719 32.578125 12.53125 C 31.945312 13.195312 31.261719 13.613281 30.539062 13.792969 C 29.8125 13.96875 29.0625 14.058594 28.285156 14.058594 L 25.996094 14.058594 L 25.273438 17.683594 L 22.621094 17.683594 L 25.347656 4.003906 M 27.582031 6.179688 L 26.4375 11.902344 C 26.511719 11.914062 26.589844 11.921875 26.664062 11.921875 C 26.753906 11.921875 26.84375 11.921875 26.933594 11.921875 C 28.152344 11.933594 29.171875 11.816406 29.984375 11.558594 C 30.796875 11.292969 31.347656 10.363281 31.625 8.773438 C 31.855469 7.4375 31.625 6.667969 30.9375 6.464844 C 30.265625 6.261719 29.417969 6.167969 28.402344 6.179688 C 28.25 6.191406 28.101562 6.199219 27.960938 6.199219 C 27.835938 6.199219 27.703125 6.199219 27.5625 6.199219 L 27.582031 6.179688 "/>
</g>
</svg>
